<?xml version="1.0" standalone="no"?>
<!DOCTYPE svg PUBLIC "-//W3C//DTD SVG 20010904//EN"
 "http://www.w3.org/TR/2001/REC-SVG-20010904/DTD/svg10.dtd">
<svg version="1.0" xmlns="http://www.w3.org/2000/svg"
 width="512.000000pt" height="512.000000pt" viewBox="0 0 512.000000 512.000000"
 preserveAspectRatio="xMidYMid meet">
<metadata>
Created by potrace 1.11, written by Peter Selinger 2001-2013
</metadata>
<g transform="translate(0.000000,512.000000) scale(0.100000,-0.100000)"
fill="#000000" stroke="none">
<path d="M1240 4131 c-122 -47 -187 -101 -237 -200 l-28 -56 -2 -990 c-2 -963
-1 -991 18 -1040 28 -73 82 -141 142 -179 89 -57 135 -68 307 -71 85 -2 160
-3 165 -4 6 -1 9 -94 8 -263 -2 -163 2 -275 8 -295 20 -64 82 -81 148 -41 20
12 38 25 41 28 3 3 50 39 105 80 54 41 106 80 115 87 8 7 33 26 55 42 22 17
45 34 50 39 21 16 333 251 382 288 l52 38 633 2 c401 1 644 5 663 12 120 41
203 109 251 207 l29 60 0 1000 c0 945 -1 1002 -18 1035 -63 122 -119 174 -232
215 l-69 25 -1270 -1 c-1178 -1 -1274 -2 -1316 -18z m2590 -171 c46 -13 103
-61 124 -104 15 -32 17 -120 16 -968 0 -513 -2 -946 -5 -961 -10 -53 -51 -103
-110 -135 -30 -17 -162 -19 -1241 -22 l-121 0 -234 -177 c-129 -97 -283 -214
-343 -260 -60 -46 -111 -81 -114 -78 -3 2 -5 109 -6 236 l-1 231 -28 24 c-25
22 -38 24 -120 24 -276 2 -342 6 -378 23 -47 23 -88 66 -102 109 -9 25 -12
280 -12 979 l0 944 23 40 c25 43 72 81 118 95 42 12 2490 12 2534 0z"/>
<path d="M1950 2881 l0 -517 98 1 c53 0 102 3 107 7 7 4 10 89 10 230 l0 223
193 0 c134 0 195 -4 200 -12 4 -6 7 -108 6 -227 0 -146 3 -216 10 -219 6 -1
54 -3 106 -2 l95 0 0 515 0 515 -105 2 -106 1 1 -181 c0 -100 -2 -189 -6 -197
-6 -13 -36 -15 -196 -14 -103 1 -190 2 -193 3 -3 0 -6 88 -5 194 l0 192 -107
1 -108 1 0 -516z"/>
<path d="M2969 3391 c-1 -3 -2 -235 -3 -516 l-1 -510 108 0 107 0 1 462 c0
255 1 479 1 498 0 78 9 72 -107 72 -58 0 -105 -3 -106 -6z"/>
</g>
</svg>
