<?xml version="1.0" standalone="no"?>
<!DOCTYPE svg PUBLIC "-//W3C//DTD SVG 20010904//EN"
 "http://www.w3.org/TR/2001/REC-SVG-20010904/DTD/svg10.dtd">
<svg version="1.0" xmlns="http://www.w3.org/2000/svg"
 width="3600.000000pt" height="3600.000000pt" viewBox="0 0 3600.000000 3600.000000"
 preserveAspectRatio="xMidYMid meet">
<metadata>
Created by potrace 1.11, written by Peter Selinger 2001-2013
</metadata>
<g transform="translate(0.000000,3600.000000) scale(0.100000,-0.100000)"
fill="#000000" stroke="none">
<path d="M17860 27461 c-109 -21 -239 -80 -319 -146 -75 -61 -135 -144 -231
-318 -8 -15 -43 -76 -77 -135 -34 -59 -73 -125 -85 -147 -13 -22 -27 -43 -31
-46 -5 -3 -8 -9 -8 -13 1 -3 -5 -16 -13 -29 -14 -22 -165 -284 -227 -392 -19
-33 -38 -68 -44 -77 -10 -16 -52 -89 -94 -163 -13 -22 -40 -69 -61 -105 -21
-36 -47 -81 -58 -100 -10 -19 -82 -143 -159 -275 -172 -296 -357 -615 -391
-675 -14 -25 -33 -57 -43 -72 -11 -14 -19 -28 -19 -30 0 -2 -28 -53 -63 -114
-35 -60 -72 -124 -83 -143 -10 -18 -35 -61 -55 -95 -109 -187 -526 -908 -547
-946 -14 -25 -28 -49 -32 -55 -4 -5 -17 -26 -27 -45 -11 -19 -68 -118 -126
-219 -59 -101 -107 -188 -107 -192 0 -5 -4 -9 -10 -9 -5 0 -10 -5 -10 -10 0
-6 -20 -43 -44 -83 -24 -39 -54 -92 -68 -117 -14 -25 -81 -142 -150 -260 -69
-118 -134 -230 -144 -249 -10 -18 -24 -41 -29 -50 -6 -9 -26 -44 -45 -79 -36
-64 -42 -68 -130 -86 -85 -17 -413 -87 -455 -96 -27 -7 -61 -14 -75 -16 -13
-3 -56 -12 -95 -20 -38 -9 -79 -17 -90 -20 -11 -2 -63 -13 -115 -24 -52 -12
-106 -23 -120 -26 -14 -2 -68 -14 -120 -25 -52 -11 -104 -22 -115 -24 -11 -1
-94 -18 -185 -38 -91 -20 -176 -38 -190 -41 -14 -2 -65 -13 -115 -25 -49 -11
-101 -22 -115 -25 -76 -15 -139 -28 -265 -55 -77 -16 -151 -32 -165 -35 -14
-2 -79 -16 -145 -31 -122 -26 -339 -72 -385 -81 -14 -3 -34 -7 -45 -9 -70 -13
-220 -47 -225 -50 -3 -2 -24 -6 -46 -9 -54 -8 -82 -14 -104 -21 -10 -3 -29 -8
-42 -10 -101 -20 -247 -50 -315 -66 -44 -10 -96 -21 -114 -24 -18 -3 -94 -19
-168 -35 -75 -16 -147 -31 -161 -34 -14 -3 -34 -7 -45 -9 -11 -3 -99 -21 -195
-42 -96 -20 -204 -43 -240 -50 -36 -8 -76 -16 -90 -19 -14 -2 -77 -16 -140
-30 -63 -14 -126 -27 -140 -30 -14 -2 -47 -10 -75 -16 -27 -6 -61 -14 -75 -16
-14 -2 -36 -7 -50 -10 -14 -3 -34 -8 -45 -10 -97 -19 -642 -135 -680 -145
-108 -28 -250 -112 -327 -194 -112 -120 -185 -293 -192 -459 -2 -46 16 -201
24 -201 1 0 3 -7 5 -15 5 -25 40 -115 46 -120 3 -3 12 -21 22 -40 20 -44 86
-124 247 -299 14 -15 54 -61 90 -101 36 -40 79 -87 95 -104 17 -18 64 -70 105
-117 41 -46 91 -102 110 -123 19 -21 40 -44 45 -50 26 -29 181 -202 190 -212
6 -6 44 -49 85 -94 41 -46 82 -91 90 -100 21 -23 161 -178 196 -218 16 -19 45
-51 64 -72 69 -76 116 -128 180 -200 36 -40 79 -89 97 -107 17 -19 53 -59 80
-90 26 -30 59 -67 73 -82 28 -30 93 -103 190 -210 36 -40 76 -85 90 -100 14
-15 39 -44 57 -63 72 -81 218 -244 227 -254 6 -6 38 -42 71 -79 33 -38 69 -78
81 -89 11 -12 61 -66 109 -121 49 -55 91 -102 95 -105 3 -3 39 -43 80 -90 41
-47 88 -99 105 -117 16 -18 48 -53 70 -79 22 -25 58 -65 80 -88 22 -24 63 -69
92 -102 28 -32 63 -72 78 -89 115 -126 263 -290 288 -319 30 -35 120 -134 157
-175 35 -37 171 -188 200 -221 63 -72 152 -171 188 -209 l43 -46 -6 -80 c-3
-44 -7 -93 -9 -110 -2 -16 -6 -59 -10 -95 -3 -36 -8 -75 -10 -85 -2 -11 -7
-60 -11 -109 -4 -50 -8 -97 -10 -105 -1 -9 -6 -50 -10 -91 -3 -41 -8 -82 -10
-90 -2 -8 -6 -46 -10 -85 -3 -38 -8 -86 -10 -105 -2 -19 -7 -62 -10 -95 -7
-74 -14 -147 -21 -200 -2 -22 -7 -65 -10 -95 -3 -30 -7 -71 -9 -90 -2 -19 -7
-69 -10 -110 -4 -41 -8 -82 -10 -90 -2 -8 -7 -46 -10 -85 -3 -38 -8 -86 -10
-105 -3 -19 -7 -60 -10 -90 -3 -30 -8 -71 -10 -90 -6 -45 -16 -143 -20 -195
-3 -46 -17 -177 -30 -275 -2 -19 -7 -60 -9 -90 -9 -88 -16 -162 -21 -200 -8
-69 -15 -136 -20 -195 -3 -33 -7 -71 -10 -85 -2 -14 -7 -60 -10 -103 -4 -43
-8 -88 -10 -100 -2 -12 -7 -53 -10 -92 -11 -108 -14 -136 -20 -195 -4 -30 -8
-73 -10 -95 -4 -39 -7 -71 -20 -185 -3 -30 -8 -75 -10 -100 -13 -131 -17 -162
-26 -245 -5 -49 -12 -110 -14 -135 -3 -25 -7 -67 -10 -95 -3 -27 -7 -75 -10
-105 -3 -30 -10 -91 -15 -135 -5 -44 -12 -109 -15 -145 -3 -36 -8 -76 -10 -90
-2 -14 -7 -59 -10 -100 -4 -41 -8 -82 -10 -90 -2 -8 -7 -53 -10 -100 -4 -47
-9 -92 -10 -101 -2 -8 -6 -48 -10 -88 -3 -40 -8 -81 -10 -91 -2 -10 -6 -55
-10 -100 -4 -45 -8 -90 -10 -100 -2 -10 -7 -51 -10 -91 -4 -40 -9 -82 -11 -93
-14 -70 -12 -220 5 -302 23 -111 43 -162 96 -244 86 -133 210 -231 365 -287
66 -24 90 -27 200 -27 199 -1 178 -8 648 203 279 126 341 152 352 153 3 0 10
3 15 8 6 4 134 63 285 130 151 67 303 135 338 151 35 16 65 29 67 29 2 0 43
18 90 40 47 22 88 40 90 40 2 0 36 15 77 34 40 19 237 107 438 196 201 90 398
178 438 196 41 19 75 34 77 34 2 0 36 15 77 34 40 18 213 95 383 171 171 75
333 147 360 160 28 13 154 69 280 125 127 56 253 112 280 125 28 12 360 161
739 330 488 217 695 305 711 301 13 -3 56 -21 96 -40 81 -37 77 -35 679 -303
228 -101 438 -195 467 -209 28 -13 54 -24 56 -24 3 0 38 -15 79 -34 40 -19
136 -62 213 -96 77 -34 163 -72 190 -85 28 -13 86 -39 130 -58 44 -19 105 -46
135 -60 30 -13 91 -40 135 -60 44 -19 107 -47 140 -62 33 -15 101 -45 150 -67
50 -22 110 -49 135 -60 212 -96 668 -299 680 -303 5 -2 25 -11 150 -68 30 -13
91 -40 135 -60 44 -19 105 -46 135 -60 30 -14 114 -51 185 -82 72 -32 153 -68
180 -80 28 -13 174 -78 325 -145 151 -68 300 -134 330 -148 30 -14 57 -26 60
-27 12 -4 66 -27 118 -51 31 -15 111 -50 177 -79 66 -29 154 -69 195 -88 125
-57 209 -88 284 -103 71 -15 178 -19 226 -9 14 3 41 8 60 11 107 17 262 106
349 200 167 179 219 365 185 659 -7 61 -15 139 -19 175 -3 36 -8 81 -10 100
-2 19 -6 62 -10 95 -3 33 -8 80 -10 105 -3 25 -8 65 -10 90 -3 25 -7 68 -10
95 -3 28 -8 73 -10 100 -5 54 -13 120 -20 175 -2 19 -7 66 -10 103 -4 37 -8
76 -9 85 -2 9 -7 53 -10 97 -7 78 -12 131 -22 208 -11 97 -13 117 -19 182 -3
39 -8 81 -10 95 -2 14 -7 57 -10 95 -3 39 -8 81 -10 95 -2 14 -6 57 -10 95 -3
39 -8 81 -10 95 -3 14 -7 54 -10 90 -3 36 -7 79 -9 95 -2 17 -7 62 -10 100 -4
39 -9 81 -11 95 -2 14 -7 57 -10 95 -4 39 -8 84 -10 100 -2 17 -7 59 -10 95
-3 36 -8 81 -10 100 -2 19 -7 60 -10 90 -3 30 -8 71 -10 90 -2 19 -7 61 -10
93 -14 155 -17 186 -30 292 -6 49 -9 77 -35 335 -12 113 -23 219 -25 235 -2
17 -7 62 -10 100 -4 39 -8 84 -10 100 -4 29 -9 79 -20 190 -3 28 -7 68 -10 90
-2 22 -7 67 -10 100 -3 33 -8 71 -10 85 -2 14 -7 61 -11 105 -3 44 -8 94 -10
110 -5 36 -24 214 -39 368 -9 86 -17 160 -21 192 -2 17 -6 59 -9 95 -4 36 -8
76 -10 90 -3 14 -7 63 -11 110 -5 83 -5 86 23 116 15 18 55 62 88 99 33 37 76
84 95 104 19 20 53 57 75 82 61 69 188 211 205 229 12 12 102 113 185 206 58
65 136 151 160 178 38 42 160 177 186 207 11 13 55 62 97 108 42 46 85 93 95
105 10 12 49 55 86 96 37 41 92 102 122 135 29 33 65 74 80 90 15 17 36 39 46
51 10 11 50 56 90 100 39 43 80 88 90 100 21 25 145 162 188 208 35 39 145
162 172 192 21 24 145 163 183 204 14 15 54 60 90 100 36 40 74 82 85 94 11
12 56 62 100 111 44 50 94 106 112 125 43 48 66 73 148 165 39 43 84 93 100
110 17 18 57 63 90 101 33 37 83 92 110 123 66 72 80 87 150 166 33 37 69 77
80 89 17 19 87 96 225 250 19 21 49 54 65 72 17 18 57 63 90 100 33 37 71 79
84 93 13 14 51 57 85 95 33 38 66 74 71 80 47 52 88 113 117 176 56 117 71
187 70 320 -1 191 -91 383 -240 512 -47 41 -208 134 -237 137 -5 1 -27 6 -47
12 -37 10 -404 88 -443 94 -25 4 -58 11 -168 36 -106 23 -932 198 -1015 215
-13 3 -76 16 -140 30 -64 14 -148 32 -187 40 -38 7 -113 23 -165 34 -52 12
-171 37 -265 56 -93 20 -179 38 -190 40 -11 3 -42 9 -70 15 -51 10 -74 15
-110 23 -27 6 -348 74 -377 80 -13 3 -88 19 -168 36 -80 17 -155 33 -167 36
-24 4 -38 7 -113 24 -25 5 -56 12 -70 15 -14 3 -36 7 -50 10 -39 7 -203 42
-245 51 -11 3 -40 9 -65 14 -25 5 -139 29 -255 54 -115 25 -221 47 -235 50
-14 2 -81 16 -150 31 -69 15 -134 29 -145 31 -11 2 -29 6 -40 8 -52 12 -223
48 -245 52 -14 3 -95 20 -181 39 -86 19 -167 36 -180 39 -39 7 -167 34 -269
56 -52 12 -101 22 -108 22 -7 1 -24 22 -38 47 -13 25 -65 115 -114 200 -50 84
-90 158 -90 162 0 5 -4 9 -10 9 -5 0 -10 4 -10 10 0 5 -38 73 -84 152 -45 79
-94 163 -108 188 -14 25 -58 101 -98 170 -111 190 -308 530 -389 672 -10 18
-64 111 -120 207 -55 95 -101 176 -101 178 0 2 -13 24 -30 48 -16 24 -30 46
-30 50 0 3 -25 47 -55 97 -30 50 -55 93 -55 95 0 2 -43 76 -95 165 -52 88 -95
163 -95 168 0 4 -8 18 -18 31 -11 13 -32 49 -49 79 -17 30 -70 123 -118 205
-48 83 -97 168 -110 190 -12 22 -64 112 -115 200 -51 88 -100 174 -110 190 -9
17 -50 87 -90 155 -40 69 -84 145 -98 170 -13 25 -28 50 -32 55 -7 9 -34 57
-74 130 -6 11 -16 27 -22 35 -7 8 -25 39 -40 68 -32 59 -36 66 -79 137 -16 28
-39 66 -50 86 -21 38 -246 427 -304 526 -18 32 -45 78 -59 103 -83 149 -151
251 -193 291 -90 89 -214 156 -343 186 -40 9 -261 12 -306 4z m168 -2103 c12
-24 35 -65 52 -93 17 -27 36 -62 42 -77 7 -16 16 -28 20 -28 4 0 8 -4 8 -9 0
-5 70 -129 155 -276 85 -147 155 -270 155 -272 0 -2 17 -32 39 -66 21 -34 69
-116 106 -182 38 -66 74 -127 82 -136 7 -9 10 -19 6 -22 -3 -4 -1 -7 5 -7 7 0
12 -5 12 -10 0 -6 12 -29 27 -53 14 -23 40 -67 56 -97 16 -30 39 -71 52 -90
19 -31 451 -778 506 -878 12 -20 25 -41 29 -47 4 -5 19 -30 32 -55 14 -25 51
-90 83 -145 32 -55 66 -113 75 -130 9 -16 68 -118 130 -225 62 -107 121 -208
130 -225 10 -16 68 -118 130 -225 62 -107 147 -253 188 -325 41 -71 83 -143
93 -160 10 -16 26 -46 37 -65 59 -107 274 -473 289 -492 43 -55 147 -148 201
-180 91 -54 154 -74 410 -128 210 -45 270 -58 307 -66 26 -6 73 -15 105 -20
19 -3 38 -8 42 -10 3 -2 30 -9 60 -15 93 -18 101 -20 173 -35 38 -9 81 -18 95
-20 14 -2 55 -11 92 -19 36 -8 83 -18 105 -21 21 -3 41 -8 44 -10 5 -3 100
-23 182 -40 10 -2 26 -5 35 -8 9 -3 29 -7 44 -10 24 -4 139 -27 203 -40 40 -9
213 -46 355 -76 80 -17 327 -69 550 -116 223 -47 423 -89 445 -94 41 -10 654
-139 690 -146 11 -2 40 -8 65 -13 59 -13 281 -60 306 -65 10 -2 55 -12 99 -21
44 -9 91 -19 105 -21 40 -8 301 -64 345 -74 22 -5 85 -19 140 -31 55 -11 107
-22 115 -24 8 -2 19 -4 24 -4 5 -1 -15 -27 -45 -59 -30 -31 -85 -93 -124 -136
-38 -43 -79 -88 -90 -100 -98 -108 -178 -198 -206 -230 -19 -22 -43 -49 -54
-61 -31 -33 -177 -195 -221 -245 -21 -24 -48 -54 -59 -66 -11 -11 -51 -56 -90
-99 -38 -42 -81 -90 -95 -105 -14 -15 -50 -55 -80 -90 -30 -34 -71 -79 -90
-100 -19 -20 -58 -64 -86 -96 -29 -32 -67 -75 -85 -95 -35 -37 -143 -158 -176
-195 -10 -12 -52 -58 -93 -104 -109 -120 -118 -131 -190 -211 -36 -40 -74 -82
-85 -95 -11 -12 -49 -54 -85 -94 -36 -40 -76 -85 -90 -100 -61 -66 -171 -188
-190 -211 -12 -13 -50 -55 -85 -94 -35 -38 -72 -79 -82 -91 -25 -29 -152 -170
-183 -204 -14 -15 -56 -62 -95 -105 -38 -44 -79 -89 -90 -101 -11 -12 -49 -55
-85 -95 -36 -40 -76 -84 -90 -99 -33 -36 -143 -159 -170 -190 -12 -14 -55 -62
-97 -107 -41 -46 -90 -100 -108 -120 -18 -21 -47 -54 -64 -73 -17 -19 -31 -38
-31 -42 0 -4 -6 -13 -13 -20 -28 -27 -86 -166 -101 -241 -22 -107 -21 -180 9
-422 2 -22 7 -67 10 -100 7 -78 14 -146 30 -295 2 -14 6 -56 9 -95 4 -38 9
-81 11 -95 3 -14 7 -59 10 -100 3 -41 8 -86 10 -100 3 -14 7 -54 10 -90 3 -36
8 -76 10 -90 2 -14 6 -59 10 -100 3 -41 8 -82 10 -90 2 -8 6 -51 10 -95 3 -44
8 -91 10 -105 2 -14 7 -59 10 -100 4 -41 9 -82 10 -90 2 -8 6 -51 9 -95 4 -44
9 -93 11 -110 6 -43 15 -121 21 -185 2 -30 7 -71 9 -90 2 -19 7 -62 10 -95 3
-33 10 -100 15 -150 6 -49 12 -115 15 -145 3 -30 7 -66 10 -80 2 -14 7 -56 10
-95 5 -67 21 -220 30 -295 2 -19 7 -64 10 -100 3 -36 8 -81 10 -100 2 -19 9
-82 15 -140 6 -58 13 -125 15 -150 3 -25 7 -66 10 -92 3 -27 7 -67 10 -90 2
-24 11 -113 20 -198 8 -85 17 -171 20 -190 5 -39 9 -84 25 -240 6 -58 13 -121
15 -140 2 -19 7 -66 10 -105 4 -38 8 -81 10 -95 2 -14 9 -79 15 -145 7 -66 14
-123 16 -127 3 -5 3 -8 0 -8 -6 0 -492 214 -614 271 -35 16 -65 29 -67 29 -2
0 -39 16 -82 36 -43 20 -159 72 -258 116 -99 43 -198 87 -220 98 -22 11 -101
46 -175 78 -155 68 -215 95 -285 128 -27 12 -106 47 -175 77 -69 30 -150 66
-180 80 -30 14 -118 53 -195 87 -77 34 -158 70 -180 80 -22 10 -87 39 -145 65
-58 25 -121 53 -140 62 -19 8 -53 23 -75 33 -22 10 -60 27 -85 39 -25 11 -84
38 -132 60 -49 22 -88 37 -88 34 0 -3 -6 -1 -12 5 -7 5 -319 146 -693 312
-374 166 -705 313 -735 327 -30 14 -68 31 -85 39 -148 67 -382 64 -543 -7 -61
-27 -79 -35 -257 -114 -187 -83 -196 -87 -270 -120 -33 -15 -100 -45 -150 -67
-49 -22 -118 -53 -153 -69 -35 -16 -65 -29 -67 -29 -2 0 -39 -16 -82 -36 -90
-41 -224 -101 -269 -120 -39 -17 -158 -70 -209 -94 -22 -10 -56 -25 -75 -33
-19 -8 -80 -35 -135 -60 -235 -105 -403 -180 -610 -272 -121 -53 -242 -107
-270 -120 -27 -13 -214 -96 -415 -185 -201 -89 -385 -171 -410 -182 -25 -12
-67 -31 -95 -43 -27 -13 -149 -67 -270 -120 -121 -54 -245 -108 -275 -122 -30
-14 -93 -42 -140 -63 -47 -21 -115 -52 -153 -69 -37 -17 -70 -31 -73 -31 -3 0
-38 -15 -77 -34 -76 -35 -146 -66 -154 -66 -2 0 -2 3 0 8 3 4 8 39 11 77 4 39
9 86 11 105 3 19 9 85 15 145 6 61 13 121 15 135 2 14 6 57 10 95 10 114 16
178 20 205 2 14 7 57 10 95 4 39 8 81 10 95 2 14 7 57 10 95 3 39 8 81 10 95
2 14 7 59 10 100 4 41 8 86 10 100 2 14 7 54 10 90 3 36 8 76 10 90 2 14 6 57
10 95 3 39 7 86 10 105 7 52 13 117 20 190 3 36 8 81 10 100 2 19 7 66 11 105
3 38 8 78 10 90 2 11 6 51 9 89 3 39 7 81 9 95 3 15 7 51 10 81 17 170 27 269
31 300 3 19 7 63 10 97 3 35 7 77 10 95 2 18 6 59 9 91 4 31 8 83 12 115 3 31
7 68 9 82 2 14 7 58 11 99 3 41 7 82 9 91 2 10 6 53 10 96 4 43 8 90 10 104 2
14 6 52 10 85 13 130 20 199 30 295 2 25 7 70 10 100 3 30 8 71 10 90 3 19 7
62 10 95 3 33 7 76 10 95 2 19 7 62 10 95 6 68 14 144 20 195 2 19 7 64 10
100 3 36 11 100 16 144 11 87 10 207 -3 270 -16 78 -19 87 -42 140 -26 59 -85
155 -113 184 -10 10 -47 51 -83 92 -36 41 -74 84 -85 96 -11 11 -45 49 -75 83
-30 35 -66 75 -80 90 -34 37 -112 123 -190 211 -36 40 -76 85 -90 99 -14 15
-59 65 -100 111 -41 46 -82 91 -90 100 -21 23 -167 185 -215 239 -22 25 -44
51 -50 57 -5 6 -44 48 -85 94 -41 45 -86 95 -100 110 -46 51 -151 168 -168
187 -70 80 -257 287 -297 329 -16 17 -47 52 -68 77 -20 25 -54 63 -75 84 -20
22 -65 71 -98 109 -34 38 -72 81 -85 95 -13 14 -58 64 -99 110 -41 46 -86 95
-100 110 -14 15 -47 53 -75 84 -27 32 -63 72 -80 89 -16 18 -61 68 -100 111
-38 44 -79 89 -90 100 -11 11 -38 40 -59 65 -54 62 -207 232 -311 345 -11 12
-49 55 -85 96 -35 41 -86 97 -112 124 -25 28 -55 60 -66 73 -34 39 -146 164
-160 178 -11 11 -9 14 10 18 13 3 46 10 73 16 28 6 59 12 70 14 30 6 413 87
710 151 272 58 294 63 335 71 71 14 317 66 400 84 83 18 348 74 405 86 11 2
36 7 55 11 19 4 37 8 40 8 3 1 23 5 45 10 22 4 47 9 55 11 98 21 441 94 460
98 41 8 781 164 980 207 102 22 198 42 215 45 16 3 46 9 65 14 19 5 50 12 68
15 17 3 128 26 245 51 409 87 582 123 607 128 14 2 45 9 70 16 25 7 54 14 65
16 11 2 63 25 115 51 153 77 232 166 388 443 34 61 151 264 161 280 29 46 136
237 139 248 2 6 7 12 12 12 4 0 10 8 13 18 3 9 21 42 39 73 51 87 239 414 273
475 17 29 36 59 43 66 7 7 12 15 12 20 0 4 14 31 31 60 29 49 66 113 93 163 6
11 16 27 22 35 6 8 24 40 40 70 16 30 31 57 34 60 3 3 29 46 57 95 75 133 221
388 232 405 6 8 22 38 37 65 14 28 32 57 40 66 8 8 14 18 14 21 0 4 19 39 43
80 24 40 55 93 69 118 30 53 124 216 162 280 15 25 29 53 33 63 3 9 9 17 14
17 5 0 9 4 9 9 0 5 31 62 68 127 106 183 220 380 275 474 44 77 62 108 117
205 10 17 46 80 82 141 36 61 68 117 71 125 4 8 13 23 19 34 27 42 74 121 86
145 7 14 24 43 38 65 13 22 27 48 30 58 10 26 18 21 42 -25z"/>
</g>
</svg>
