<svg height='100px' width='100px'  fill="#3f51b5" xmlns="http://www.w3.org/2000/svg" viewBox="0 0 70 62" x="0px" y="0px"><g fill="#3f51b5" fill-rule="evenodd"><path d="M46.3627645 20.8102261C46.4740404 20.1614379 46.2589434 19.4994375 45.7875713 19.0399632L41.081018 14.4522077 47.5853146 13.5070781C48.2367349 13.4124212 48.7998661 13.0032824 49.0911901 12.4129955L52 6.51910292 54.9088099 12.4129955C55.2001339 13.0032824 55.7632651 13.4124212 56.4146854 13.5070781L62.918982 14.4522077 58.2124287 19.0399632C57.7410566 19.4994375 57.5259596 20.1614379 57.6372355 20.8102261L58.748302 27.2882408 52.9306823 24.2297372C52.3480342 23.9234209 51.6519658 23.9234209 51.0693177 24.2297372L45.251698 27.2882408 46.3627645 20.8102261zM60.4738818 32.7145348C61.9411365 33.4859162 63.6560014 32.239994 63.3757807 30.6061818L61.7574133 21.1703758 68.6129276 14.4879008C69.7999617 13.3308286 69.1449416 11.314884 67.5045009 11.0765141L58.030413 9.69984851 53.7934722 1.11486858C53.0598448-.371622859 50.9401552-.371622859 50.2065278 1.11486858L45.969587 9.69984851 36.4954991 11.0765141C34.8550584 11.314884 34.2000383 13.3308286 35.3870724 14.4879008L42.2425867 21.1703758 40.6242193 30.6061818C40.3439986 32.239994 42.0588635 33.4859162 43.5261182 32.7145348L52 28.2595515 60.4738818 32.7145348zM4.2493901 61.5617376L31.2602156 39.9530772C32.1227395 39.2630581 32.2625823 38.0044733 31.5725632 37.1419495 30.8825441 36.2794256 29.6239593 36.1395828 28.7614355 36.8296019L1.7506099 58.4382624C.888086035 59.1282815.748243285 60.3868662 1.43826238 61.2493901 2.12828148 62.111914 3.38686622 62.2517567 4.2493901 61.5617376zM39.2493901 49.5617376L52.0455148 39.3248378C52.9080387 38.6348188 53.0478814 37.376234 52.3578623 36.5137101 51.6678432 35.6511863 50.4092585 35.5113435 49.5467346 36.2013626L36.7506099 46.4382624C35.888086 47.1282815 35.7482433 48.3868662 36.4382624 49.2493901 37.1282815 50.111914 38.3868662 50.2517567 39.2493901 49.5617376zM32.2 55.6C34.3333333 54 31.9333333 50.8 29.8 52.4L21.8 58.4C19.6666667 60 22.0666667 63.2 24.2 61.6L32.2 55.6zM25.2 27.6L31.1657031 23.1257227C32.0493587 22.462981 32.2284448 21.2093783 31.5657031 20.3257227 30.9029614 19.4420671 29.6493587 19.262981 28.7657031 19.9257227L22.8 24.4C21.9163444 25.0627417 21.7372583 26.3163444 22.4 27.2 23.0627417 28.0836556 24.3163444 28.2627417 25.2 27.6zM18.2356431 33.5726367C20.332492 31.9251125 17.8612058 28.7798392 15.7643569 30.4273633L1.7643569 41.4273633C-.332492007 43.0748875 2.1387942 46.2201608 4.2356431 44.5726367L18.2356431 33.5726367z"></path></g></svg>